<svg id="visual" viewBox="0 0 500 100" width="500" height="100" xmlns="http://www.w3.org/2000/svg" xmlns:xlink="http://www.w3.org/1999/xlink" version="1.1"><path d="M479 100L480.7 95.8C482.3 91.7 485.7 83.3 487.3 75C489 66.7 489 58.3 488.2 50C487.3 41.7 485.7 33.3 482.3 25C479 16.7 474 8.3 471.5 4.2L469 0L500 0L500 4.2C500 8.3 500 16.7 500 25C500 33.3 500 41.7 500 50C500 58.3 500 66.7 500 75C500 83.3 500 91.7 500 95.8L500 100Z" fill="#faca38"></path><path d="M459 100L458.2 95.8C457.3 91.7 455.7 83.3 457.3 75C459 66.7 464 58.3 462.3 50C460.7 41.7 452.3 33.3 446.5 25C440.7 16.7 437.3 8.3 435.7 4.2L434 0L470 0L472.5 4.2C475 8.3 480 16.7 483.3 25C486.7 33.3 488.3 41.7 489.2 50C490 58.3 490 66.7 488.3 75C486.7 83.3 483.3 91.7 481.7 95.8L480 100Z" fill="#f6bb2f"></path><path d="M444 100L439 95.8C434 91.7 424 83.3 421.5 75C419 66.7 424 58.3 424.8 50C425.7 41.7 422.3 33.3 419.8 25C417.3 16.7 415.7 8.3 414.8 4.2L414 0L435 0L436.7 4.2C438.3 8.3 441.7 16.7 447.5 25C453.3 33.3 461.7 41.7 463.3 50C465 58.3 460 66.7 458.3 75C456.7 83.3 458.3 91.7 459.2 95.8L460 100Z" fill="#f2ad28"></path><path d="M364 100L363.2 95.8C362.3 91.7 360.7 83.3 344 75C327.3 66.7 295.7 58.3 286.5 50C277.3 41.7 290.7 33.3 303.2 25C315.7 16.7 327.3 8.3 333.2 4.2L339 0L415 0L415.8 4.2C416.7 8.3 418.3 16.7 420.8 25C423.3 33.3 426.7 41.7 425.8 50C425 58.3 420 66.7 422.5 75C425 83.3 435 91.7 440 95.8L445 100Z" fill="#ed9e22"></path><path d="M324 100L323.2 95.8C322.3 91.7 320.7 83.3 307.3 75C294 66.7 269 58.3 259.8 50C250.7 41.7 257.3 33.3 268.2 25C279 16.7 294 8.3 301.5 4.2L309 0L340 0L334.2 4.2C328.3 8.3 316.7 16.7 304.2 25C291.7 33.3 278.3 41.7 287.5 50C296.7 58.3 328.3 66.7 345 75C361.7 83.3 363.3 91.7 364.2 95.8L365 100Z" fill="#e7901d"></path><path d="M139 100L149 95.8C159 91.7 179 83.3 184 75C189 66.7 179 58.3 183.2 50C187.3 41.7 205.7 33.3 213.2 25C220.7 16.7 217.3 8.3 215.7 4.2L214 0L310 0L302.5 4.2C295 8.3 280 16.7 269.2 25C258.3 33.3 251.7 41.7 260.8 50C270 58.3 295 66.7 308.3 75C321.7 83.3 323.3 91.7 324.2 95.8L325 100Z" fill="#e1811a"></path><path d="M104 100L109.8 95.8C115.7 91.7 127.3 83.3 129.8 75C132.3 66.7 125.7 58.3 131.5 50C137.3 41.7 155.7 33.3 163.2 25C170.7 16.7 167.3 8.3 165.7 4.2L164 0L215 0L216.7 4.2C218.3 8.3 221.7 16.7 214.2 25C206.7 33.3 188.3 41.7 184.2 50C180 58.3 190 66.7 185 75C180 83.3 160 91.7 150 95.8L140 100Z" fill="#db7318"></path><path d="M94 100L99.8 95.8C105.7 91.7 117.3 83.3 119.8 75C122.3 66.7 115.7 58.3 119 50C122.3 41.7 135.7 33.3 141.5 25C147.3 16.7 145.7 8.3 144.8 4.2L144 0L165 0L166.7 4.2C168.3 8.3 171.7 16.7 164.2 25C156.7 33.3 138.3 41.7 132.5 50C126.7 58.3 133.3 66.7 130.8 75C128.3 83.3 116.7 91.7 110.8 95.8L105 100Z" fill="#d36418"></path><path d="M74 100L80.7 95.8C87.3 91.7 100.7 83.3 101.5 75C102.3 66.7 90.7 58.3 90.7 50C90.7 41.7 102.3 33.3 108.2 25C114 16.7 114 8.3 114 4.2L114 0L145 0L145.8 4.2C146.7 8.3 148.3 16.7 142.5 25C136.7 33.3 123.3 41.7 120 50C116.7 58.3 123.3 66.7 120.8 75C118.3 83.3 106.7 91.7 100.8 95.8L95 100Z" fill="#cc5518"></path><path d="M54 100L57.3 95.8C60.7 91.7 67.3 83.3 64.8 75C62.3 66.7 50.7 58.3 53.2 50C55.7 41.7 72.3 33.3 81.5 25C90.7 16.7 92.3 8.3 93.2 4.2L94 0L115 0L115 4.2C115 8.3 115 16.7 109.2 25C103.3 33.3 91.7 41.7 91.7 50C91.7 58.3 103.3 66.7 102.5 75C101.7 83.3 88.3 91.7 81.7 95.8L75 100Z" fill="#c34619"></path><path d="M19 100L20.7 95.8C22.3 91.7 25.7 83.3 24 75C22.3 66.7 15.7 58.3 13.2 50C10.7 41.7 12.3 33.3 13.2 25C14 16.7 14 8.3 14 4.2L14 0L95 0L94.2 4.2C93.3 8.3 91.7 16.7 82.5 25C73.3 33.3 56.7 41.7 54.2 50C51.7 58.3 63.3 66.7 65.8 75C68.3 83.3 61.7 91.7 58.3 95.8L55 100Z" fill="#ba3619"></path><path d="M0 100L0 95.8C0 91.7 0 83.3 0 75C0 66.7 0 58.3 0 50C0 41.7 0 33.3 0 25C0 16.7 0 8.3 0 4.2L0 0L15 0L15 4.2C15 8.3 15 16.7 14.2 25C13.3 33.3 11.7 41.7 14.2 50C16.7 58.3 23.3 66.7 25 75C26.7 83.3 23.3 91.7 21.7 95.8L20 100Z" fill="#b1241a"></path></svg>